<?xml version="1.0" encoding="utf-8"?>
<!-- Generator: Adobe Illustrator 15.1.0, SVG Export Plug-In . SVG Version: 6.00 Build 0)  -->
<!DOCTYPE svg PUBLIC "-//W3C//DTD SVG 1.1//EN" "http://www.w3.org/Graphics/SVG/1.1/DTD/svg11.dtd">
<svg version="1.1" id="Layer_1" xmlns="http://www.w3.org/2000/svg" xmlns:xlink="http://www.w3.org/1999/xlink" x="0px" y="0px"
	 width="550.9px" height="136.9px" viewBox="0 0 550.9 136.9" enable-background="new 0 0 550.9 136.9" xml:space="preserve">
<g>
	<path fill="#BA3926" d="M18.6,104.9c0,0,0.1,0.1,0.1,0.1C18.7,104.9,18.6,104.9,18.6,104.9z"/>
	<path fill="#BA3926" d="M33.2,101.7c1.3-7,1.5-14.2,2.7-21.2c2.3-13.7,5.3-28.3,11.6-40.6c2.2-4.2,0.6-5.7-2-5.7
		c-0.1,0.7-0.4,1.6-1,2.7c-6.3,12.3-9.2,26.9-11.6,40.6c-1.2,7-1.4,14.2-2.7,21.2c-0.5,2.9-1,7-4.4,6.8c-3.1-0.1-6.7-0.9-9.3-2.9
		c0.2,0.6,0.6,1,1,1.2c0.4,0.4,0.8,0.7,1.1,1.1c2.7,2.6,6.6,3.5,10.1,3.6C32.2,108.6,32.6,104.5,33.2,101.7z"/>
	<path fill="#BA3926" d="M19.1,105.3c0.1,0.1,0.1,0.1,0.2,0.2C19.3,105.5,19.2,105.4,19.1,105.3z"/>
	<path fill="#BA3926" d="M53.2,71c0.9,0.2,1.6,0.5,2.4,1c-1.3-2-3.1-3.5-5.4-4c-1.7,0.6-6.3,1.6-9.4,1c0,0.1,0,0.2,0,0.3
		C41.4,73.9,50.7,71.9,53.2,71z"/>
	<path fill="#BA3926" d="M21.8,57.1c2.2-4.2,2-10.1,4.3-14.6C28.8,37,32.4,32,36.6,27.6c7-7.4,18.1-16.1,29.2-12.6
		c0.9,0.3,1.7,0.6,2.4,1.1c-1.2-1.9-2.9-3.3-5.4-4.1c-11-3.5-22.2,5.2-29.2,12.6C29.4,29,25.8,34,23.1,39.5
		c-2.2,4.5-2.1,10.4-4.3,14.6c-1.3,3.6-3.3,3.2-5.2,1.6C16.3,58.8,19.9,62.6,21.8,57.1z"/>
	<path fill="#BA3926" d="M19.9,118.2c-1.5-2.1-2.7-4.7-3.3-8.1c-0.1-0.4-0.1-0.8-0.2-1.3c-0.3-2.2-1.5-2.9-3-2.9
		c0.1,0.4,0.1,0.7,0.2,1.1C14.6,112.4,16.9,116,19.9,118.2z"/>
	<path fill="#BA3926" d="M59.9,64.1c1.8-0.2,4.1,0.6,6.2,1.7c10.5-4.7,20.1-12.4,24.1-23.8c3.8-11,1.4-23-7.1-30.1
		c6,7.2,7.4,17.5,4.1,27.1C82.8,51.4,71.6,59.6,59.9,64.1z"/>
	<path fill="#BA3926" d="M74.8,72.5c7.7,9.3,7.1,23.7,1.8,34.6c-6,12.1-17.2,20.1-29.1,24.1c-11.8,3.9-25.6,4.5-35.8-4.3
		c0.3,0.4,0.7,0.8,1,1.1c10.3,10.7,25.2,10.3,37.8,6.2c12-4,23.2-12,29.1-24.1C85.6,97.9,85.6,81.5,74.8,72.5z"/>
	<path fill="#BA3926" d="M110.8,58.8c-0.3-1.3-1.7-2.9-3.5-4.2c0.2,0.4,0.4,0.8,0.5,1.2c0.7,2.8-1.7,6.3-2.7,8.8
		c-1.4,3.8-2.6,7.6-3.7,11.5c3.3-5.6,5.6-11.2,9.5-16.1C111,59.6,110.9,59.2,110.8,58.8z"/>
	<path fill="#BA3926" d="M133.9,68.8c2-4.6,5.9-11.9,1.1-16c-0.4-0.4-0.9-0.8-1.4-1c2.1,4.2-0.9,10.1-2.7,14
		c-0.3,0.6-0.2,0.5-0.1,0.2c-1,2.1-3.1,6.7-1.4,8.8c0.8,1,3.5,2.8,1.2,4c-4.1,1.8-10.6,4.4-15.1,2c0.3,0.6,0.7,1.2,1.3,1.8
		c4.3,4.3,12.1,1.2,16.7-0.8c2.3-1.2-0.4-3-1.2-4c-1.7-2.1,0.5-6.7,1.4-8.8C133.7,69.3,133.6,69.4,133.9,68.8z"/>
	<path fill="#BA3926" d="M104.8,85.5c-1.2,3.7-2,7.6-1.9,11.5c0.1,2.4,2,5.9,1.2,8.2c-0.4,0.9-0.8,1.5-1.2,1.9
		c-2.9,1.9-11.6-1.2-14.3-2.7c-0.1-0.1-0.3-0.2-0.4-0.3c0.8,1.3,1.9,2.4,3.4,3.3c2.7,1.5,11.4,4.6,14.3,2.7c0.4-0.4,0.8-1,1.2-1.9
		c0.8-2.2-1.2-5.8-1.2-8.2c-0.1-3.9,0.7-7.9,1.9-11.5c0.3-1.1,2.4-7,4.5-11.1c-0.9-2.1,0-4,0.7-7.1
		C110.4,69.3,105.4,83.6,104.8,85.5z"/>
	<path fill="#BA3926" d="M148.6,74C148.6,74,148.6,74,148.6,74C148.6,73.9,148.6,73.7,148.6,74z"/>
	<path fill="#BA3926" d="M148.8,81.9c0.1,4.4,1.6,6.7,3.9,7.6c-0.5-1.2-0.8-2.7-0.9-4.6c12.9-3.3,27.8-13.6,27.4-28.9
		c-0.1-3.5-1.8-6-4.2-7.4c0.7,1.2,1.2,2.7,1.2,4.4C176.5,68.4,161.6,78.6,148.8,81.9z"/>
	<path fill="#BA3926" d="M217.7,84.7c0-0.3,0.1-0.5,0.1-0.8c1.1-6,3.8-11.7,6.6-17c2.8-5.3,7.7-10,10.3-15.2c-0.1-1-0.4-2.2-0.7-3.4
		c-0.5-0.4-1.1-0.7-1.9-1.1c0,0.4-0.1,0.7-0.3,1.1c-2.6,5.3-7.6,10.1-10.5,15.5c-2.8,5.3-5.6,11-6.6,17
		C214.1,85,215.5,85.8,217.7,84.7z"/>
	<path fill="#BA3926" d="M193.1,85.8c0.2-3.5,2.5-9.2,3.8-12c1.1-2.5,15-22.9,14.3-23.6c-0.9-0.9-2.1-1.6-3.3-2.1
		c-1.9,4-13,20.4-14,22.7C191.7,75.5,187,87.5,193.1,85.8z"/>
	<path fill="#BA3926" d="M139,100.8c0,0-0.1-0.1-0.1-0.1c0.8,1.1,1.9,2.2,3.1,3.1c13.3,9.8,29.9-3.3,39.2-14.1
		c-0.5-1.9-0.8-3.8-0.9-5.6C171.6,95.2,153.4,111.4,139,100.8z"/>
	<path fill="#BA3926" d="M189.2,99.3c-1-0.2-1.9-0.7-2.7-1.2c1.3,2,3.2,3.6,5.7,4.2c6.6,1.6,11.2-3.2,14.5-8.3
		c-0.9-1.2-1.7-2.6-2.1-4.4C201.2,95.1,196.4,101,189.2,99.3z"/>
	<path fill="#BA3926" d="M254.3,49.5C253.7,48.7,254,49.1,254.3,49.5c-0.7-0.8-1.5-1.5-2.3-2.1c4,6.3-1.3,16.8-4.4,22.3
		c-4.6,8-11.1,15.8-18.1,21.9c-4,6.3-14,8.9-20.2,4.8c5.3,8,18.5,5.7,23.2-1.8c7-6.2,13.5-13.9,18.1-21.9
		C253.9,66.9,259.5,55.6,254.3,49.5C254.7,49.8,255,50.2,254.3,49.5z"/>
	<path fill="#BA3926" d="M153.1,71.9c2.2-5.4,6.2-13.1,8.9-14.4c-0.1-1-0.5-1.8-1.2-2.6c-3.1-4.4-12.4,16.3-12.1,19.2
		c0,0.1,0,0.3,0,0c0,0.6-0.1,1.2-0.3,1.9C149.4,75.1,151.2,73.7,153.1,71.9z"/>
	<path fill="#BA3926" d="M270.6,81.1c-2.3-4.1-0.1-10.9,1.4-14.8c0.4-1.1,5.2-10,8.5-11.6c-0.1-0.9-0.3-1.7-0.9-2.6
		c-2.9-3.6-10.1,9.9-10.6,11.3c-1.7,4.1-4,11.7-0.8,15.7C268.9,79.9,269.7,80.6,270.6,81.1z"/>
	<path fill="#BA3926" d="M280.1,73c-1.8,0.7-3.8,1.3-5.7,1c0.1,0.5,0.2,1.1,0.5,1.6c2.2,2.5,5.4,1.4,8.1,0.4
		c9-3,21.6-22.1,10.8-28.8C298.6,55.4,287.9,70.3,280.1,73z"/>
	<path fill="#BA3926" d="M326.3,46.9c1.3,1.9,1.8,4,0.8,5.8c-2,2.7-16.2,27.2-7.4,28.6c0.1,0,0.2,0,0.2,0c-1-6.9,8.6-23.4,10.2-25.5
		C331.8,52.9,329.5,49.2,326.3,46.9z"/>
	<path fill="#BA3926" d="M312.6,96.3c-3.4,0.2-6.2-0.5-8.4-1.9c2.3,3.4,6.2,5.3,11.4,4.9c5.1,0,9.7-4.8,13.2-9.5
		c0.1-2.9,0.4-5.7,1-8.5C326.2,86.2,319.9,96.4,312.6,96.3z"/>
	<path fill="#BA3926" d="M259.2,96.5c-1-0.4-1.8-0.8-2.6-1.3c1.2,1.9,3.1,3.4,5.6,4.3c13.4,4.9,27.8-2,37.2-11.7
		c-0.5-1.7-0.7-3.5-0.7-5.5C289.6,93.1,273.8,101.8,259.2,96.5z"/>
	<path fill="#BA3926" d="M362.2,57c0.9-1.3,1-2.7,0.4-4.3c0-0.1-0.1-0.2-0.2-0.2c0-0.1,0-0.1,0-0.2c-0.5-0.7-0.9-1.4-1.4-2.1
		c-0.5-0.4-1.2-0.9-2-1.4c0.1,0.2,0.2,0.4,0.3,0.5c0,0.1,0,0.1,0,0.2c0.2,0,0.2,0.1,0.2,0.2c0.6,1.5,0.4,3-0.4,4.3
		c-3.2,4.3-5.6,9-7.9,13.7c-2.8,5.7-4.7,12.5-4.4,18.9c0.1,2.1,4.1,10.7,2.5,11.2c-5.8,1.7-12,2.2-17.5-0.3c0.2,0.8,0.7,1.5,1.5,2.2
		c5.9,3.5,12.7,2.9,19,1.1c1.6-0.6-2.4-9.2-2.5-11.2c-0.3-6.4,1.6-13.1,4.4-18.9C356.6,66,359.1,61.3,362.2,57z"/>
	<path fill="#BA3926" d="M408.8,70.7c0.1-0.3,0.2-0.5,0.4-0.8c-0.8,1.6,0.8-1.6,0,0c0.8-1.6,1.6-3.1,2.5-4.7
		c-0.6,0.5-3.1,1.9-5.2,2.3c-0.3,0.8-0.4,1.5-0.1,2C406.7,70.6,407.6,70.8,408.8,70.7z"/>
	<path fill="#BA3926" d="M424.5,65C424.5,65,424.5,65,424.5,65C424.8,65.2,424.9,65.3,424.5,65z"/>
	<path fill="#BA3926" d="M418.8,60.8c0.3-2.7-0.2-5.3-2.7-7.3c-0.4-0.3-0.7-0.6-1.1-0.8c1.4,2.6,1,5.8-0.1,8.6
		C416.1,60.7,417.4,60.5,418.8,60.8z"/>
	<path fill="#BA3926" d="M402.2,55.8c-4.2,0.8-7.7,5-10.1,8c-3.2,4.1-10.6,16.9-3,19.9c-1.7-5,3.4-13.6,6-16.9
		c2.4-3.1,5.8-7.2,10.1-8c0.4-0.1,0.8-0.1,1.1-0.1C406.2,56.7,405.1,55.2,402.2,55.8z"/>
	<path fill="#BA3926" d="M424.6,65.1c0.4,0.7,0.8,1.4,1,2.1c0.6,1.1,0.5,2.2-0.1,3.5c-6.2,9.7-10.4,20.5-4.8,31.1
		c0.3,0.6,0.2,1.1-0.1,1.5c-0.4,0.9-1.4,1.1-3.1,0.7c-3-0.2-5.5-0.9-7.6-2c-0.6-0.3-1.1-0.6-1.6-0.9c1.1,1.6,2.6,3,4.6,3.9
		c2.1,1.2,4.7,1.8,7.6,2c1.7,0.4,2.7,0.2,3.1-0.7c0.3-0.4,0.4-0.9,0.1-1.5c-5.6-10.7-1.4-21.4,4.8-31.1c0.6-1.3,0.6-2.4,0.1-3.5
		C428,68.2,426.7,66.5,424.6,65.1z"/>
	<path fill="#BA3926" d="M403.2,89.4c-5.7,6-13.4,11.6-22.4,9.4c-1.4-0.3-2.6-0.9-3.6-1.5c1.3,2.1,3.4,3.7,6.6,4.5
		c7.7,1.9,14.6-2.1,19.9-7C403.2,93.1,403.1,91.3,403.2,89.4z"/>
	<path fill="#BA3926" d="M448,79.4c0,0,0.3-0.6,0.2-0.4C448.1,79.1,448.1,79.3,448,79.4z"/>
	<path fill="#BA3926" d="M451.6,35.1c0.7-0.9,1.3-1.9,2-2.8c-10.6-1.4-37.2,4.9-48.5-3.1C412.6,40,437.7,35.3,451.6,35.1z"/>
	<path fill="#BA3926" d="M481.4,29.8c1.5,0.2,3.1,0.5,4.7,0.8c0-2.7-1.6-4.8-3.9-6.2c0.6,1,0.9,2.2,0.9,3.5
		C483,28.4,482.5,29,481.4,29.8z"/>
	<path fill="#BA3926" d="M378.2,63.7c3.1-7.5,7.2-14.6,11.6-21.5c3.2-5,7-12.3,12.2-16.2c-0.8-1.1-1.3-2.4-1.7-3.9
		c-5.8,3.6-10,11.7-13.5,17.1c-4.4,6.8-8.5,14-11.6,21.5c-4.1,9.5-11.4,26.1-5.9,35.9c0.3,0.6,0.2,1.4-0.4,2.2
		c-2,2.6-8.6-1.1-10.5-2.3c0.7,1.1,1.7,2.1,3,3c1.7,1.2,8.5,4.9,10.5,2.4c0.5-0.9,0.6-1.6,0.4-2.2C366.8,89.8,374.2,73.2,378.2,63.7
		z"/>
	<path fill="#BA3926" d="M445,76.4c0.1-0.1,0.1-0.3,0.2-0.4C445,76.3,445,76.4,445,76.4z"/>
	<path fill="#BA3926" d="M460.3,58.4c4.9-6.9,10.4-13.7,16.7-19.6c4.2,0.2,11.8,2.2,16.5,5.6c-3.4-5.2-14.2-8.4-19.5-8.6
		c-6.3,5.9-11.8,12.7-16.7,19.6c-4.6,6.6-7.7,14-12.1,20.6c0.1-0.2-0.2,0.4-0.2,0.4c-2.6,4.9-4.7,10.4-5.6,15.8
		c-0.4,2.9,3,11.9-2.3,11.5c-2.8-0.8-5-1.8-6.7-3c1.8,2.6,4.9,4.7,9.7,6c5.3,0.4,1.9-8.6,2.3-11.5c0.9-5.4,3-10.9,5.6-15.8
		c0,0,0-0.1,0.2-0.4C452.7,72.4,455.7,64.9,460.3,58.4z"/>
	<path fill="#BA3926" d="M498.9,51.8c5.6-0.6,10.5-4.3,6.8-9.7c-0.8-1.2-1.9-2.2-3.1-3.1c0,0,0.1,0.1,0.1,0.1c3.5,5-0.6,8.5-5.6,9.5
		c0.3,0.7,0.4,1.4,0.4,2.2C497.7,51.3,498.1,51.7,498.9,51.8z"/>
	<path fill="#BA3926" d="M476.7,79c-0.3-0.2-0.6-0.4-0.9-0.6c0.2,0.3,0.4,0.6,0.7,0.9C476.6,79.2,476.7,79.1,476.7,79z"/>
	<path fill="#BA3926" d="M520.5,63.9c0.7,1,1.1,1.9,1.2,2.7c0.1,2.5-3.1,4.9-4.5,6.8c-2.2,2.8-4.2,5.8-6.1,8.8
		c4.6-4.1,8.3-8.5,13.5-11.9c0-0.2,0.1-0.4,0.1-0.7C524.6,68,522.8,65.7,520.5,63.9z"/>
	<path fill="#BA3926" d="M467,72.2c1-1.5,2.4-2.8,3.7-4.1c0-2.8,0.7-5.6,1.6-8.2c-2,3.4-6,6-8.3,9.3c-3.3,4.6-6,10.4-7,15.9
		c-0.5,3,0.9,4.1,2.9,4.3c0-0.4,0-0.8,0.1-1.3C461,82.6,463.7,76.8,467,72.2z"/>
	<path fill="#BA3926" d="M494.9,75.6c2.1-6.2,2.3-14.8-3.6-18.4c3.1,5,1.9,12.9-0.3,17.8C492.3,75.2,493.6,75.4,494.9,75.6z"/>
	<path fill="#BA3926" d="M473.1,58.2c0,0-0.1,0-0.1,0c0,0.1,0,0.2,0,0.3C473,58.4,473.1,58.3,473.1,58.2z"/>
	<path fill="#BA3926" d="M484.6,62.4c-0.1-1.1-0.5-2.1-1.4-2.6c-3.5-2.3-4.5,5.2-4.3,6.5c0,1.7,1.6,3.5,3.3,4.2
		c-0.2-0.4-0.3-0.8-0.3-1.2C481.8,68.2,482.4,63,484.6,62.4z"/>
	<path fill="#BA3926" d="M549.6,69.9c-0.6-0.7-1.3-1.3-2.1-1.6c2.2,4.7-4.1,9.8-6.7,13.3c-1,1.3-3,3.8-2.1,5.5
		c0.5,1,2.8,3.1,0.3,3.6c-4,0.5-10.1,1.2-14.1-0.9c0.2,0.3,0.3,0.6,0.6,0.9c3.3,4.5,11.6,3.7,16.5,3c2.5-0.5,0.2-2.6-0.3-3.6
		c-0.9-1.7,1.1-4.2,2.1-5.5C546.6,80.8,553.9,75,549.6,69.9z"/>
	<path fill="#BA3926" d="M549.6,69.9C551.1,71.7,548.6,68.6,549.6,69.9L549.6,69.9z"/>
	<path fill="#BA3926" d="M512.4,90.7c-1.9,2.8-3.6,5.9-4.3,9.2c-0.5,2,0.7,5.4-0.6,7.1c-0.6,0.6-1.1,1.1-1.6,1.3
		c-3,0.9-9-2.1-12.7-4.9c0,0,0,0.1,0.1,0.1c1.9,3,11.4,9,15.6,7.8c0.5-0.2,1-0.7,1.6-1.3c1.3-1.7,0.1-5.1,0.6-7.1
		c0.7-3.2,2.4-6.4,4.3-9.2c0.5-0.8,3.4-4.7,6.2-7.7c-0.7-2.2,0.6-3.6,2.1-6.2C521.3,78.4,513.3,89.3,512.4,90.7z"/>
	<path fill="#BA3926" d="M488,81.6c-8.4,10.8-18.1,24.7-35.4,21.5c-1.6-0.4-2.9-0.9-4.1-1.6c1.4,2.2,3.6,3.8,7.1,4.6
		c17.3,3.3,27-10.7,35.4-21.5c0.5,0.2,1,0.3,1.5,0.4c0.5-1,0.9-1.9,1.3-2.8C492,82.3,489.7,82.4,488,81.6z"/>
</g>
<g>
	<path d="M13.6,99.9c2.7,2.6,6.6,3.5,10.1,3.6c3.4,0.1,3.8-4,4.4-6.8c1.3-7,1.5-14.2,2.7-21.2c2.3-13.7,5.3-28.3,11.6-40.6
		c3.9-7.6-4.3-6.3-8.9-3.7c-5.4,3.1-8.6,13.1-10.8,18.6c-1.8,3.9-16.2,47-10.2,49C12.9,99.1,13.3,99.5,13.6,99.9
		C15.2,101.3,13.6,99.9,13.6,99.9z"/>
	<path d="M67.7,65.9c-2.4-1.6-6.8-4.2-9.8-3.9c11.7-4.4,22.9-12.6,27.2-25.1c4.9-14-0.4-29.6-15.4-34.6C56.2-2.3,38.9,0.4,26.6,6.8
		c-6.2,3.2-12.1,7-17.1,11.8c-1.6,1.5-7.5,11.7-8.9,11.9c-2.1,6.7,3,14.3,7.1,19.1c2.7,3.1,7.1,8.7,9.3,2.5c2.2-4.2,2-10.1,4.3-14.6
		C23.8,32,27.4,27,31.6,22.6c7-7.4,18.1-16.1,29.2-12.6c9.8,3.1,8.1,16.9,4.9,24c-4.4,9.9-11,17.5-19,24.6c-3.2-0.3-11.7,0.1-11,5.7
		c0.6,4.6,9.9,2.5,12.4,1.7c6.9,1.7,9.2,12,9,18.1c-0.3,8.3-3.2,17-8,23.6c-9.2,12.5-33.6,18.5-37.6-2.6c-0.1-0.4-0.1-0.8-0.2-1.3
		c-1-6.4-9.6-0.5-10.9,2.8c-2,5,4.2,13.3,7.1,16.4c10.3,10.7,25.2,10.3,37.8,6.2c12-4,23.2-12,29.1-24.1
		C80.9,92.2,80.6,74.5,67.7,65.9C65.4,64.4,70.1,67.5,67.7,65.9z"/>
	<path d="M128.9,63.8c2-4.6,5.9-11.9,1.1-16c-4.8-4.7-14.4,3.3-17.8,6.6c-6,5.8-8.6,12.8-12.8,19.8c1.1-3.9,2.3-7.8,3.7-11.5
		c0.9-2.5,3.4-6,2.7-8.8c-1-4-11.5-10-14-4.7c-4.8,12.4-9,24.9-10,38.4c-0.4,5.8-0.6,11.8,4.9,14.9c2.7,1.5,11.4,4.6,14.3,2.7
		c0.4-0.4,0.8-1,1.2-1.9c0.8-2.2-1.2-5.8-1.2-8.2c-0.1-3.9,0.7-7.9,1.9-11.5c0.6-1.9,5.5-16.2,8.1-15.2c-0.9,4-2.2,6.1,0.9,9.3
		c4.3,4.3,12.1,1.2,16.7-0.8c2.3-1.2-0.4-3-1.2-4C125.7,70.6,128,65.8,128.9,63.8C129.6,62.2,128.2,65.3,128.9,63.8z"/>
	<path d="M249.3,44.5c-3.6-4.3-10-5.1-15.3-4.6c-4.9,0.5-1,7.3-1.2,10.5c-0.8,11.4-6.9,22.2-14.5,30.5c-3.5,3-6.4,3.5-5.4-2.1
		c1.1-6,3.8-11.7,6.6-17c2.9-5.4,7.9-10.2,10.5-15.5c2.2-4.5-9.3-5.9-11.7-6.2c-1.6,0-2.6,0.5-2.9,1.3c-2.9,6.2-6.2,12.1-8.6,18.6
		c-3,8.1-6.1,15.5-12,22c-11.3,7.4-5.4-7.9-2.8-13.2c1.1-2.5,15-22.9,14.3-23.6c-2.9-2.8-7.5-3.4-11.2-4.2c-2.8-0.6-4.7,3.6-5.8,5.6
		c-4.5,8-8.7,17.4-10.2,26.5c-5.5,5.4-31.7,26-32.2,6.8c12.9-3.3,27.8-13.6,27.4-28.9c-0.2-7.3-7.2-10.1-13.8-8.6
		c-7.4,1.7-13.5,7.7-18.1,13.4c-7.6,9.6-18.5,33.2-5.3,42.9c14.4,10.6,32.6-5.6,41.3-16.7c0.3,5.9,2.5,13.6,8.9,15.2
		c7.1,1.7,12-4.1,15.4-9.7c3.3,12.2,19.6,10.5,24.9,2c7-6.2,13.5-13.9,18.1-21.9C248.9,61.9,254.5,50.6,249.3,44.5
		C248.1,43,250.6,45.9,249.3,44.5z M146.6,72c-0.3-2.9,9.1-23.6,12.1-19.2c5.5,5.8-8.4,18.3-12.5,21C146.6,73.2,146.7,72.6,146.6,72
		C146.6,71.4,146.7,72.6,146.6,72z"/>
	<path d="M349.3,65.8c2.3-4.8,4.8-9.5,7.9-13.7c0.9-1.3,1-2.7,0.4-4.3c0-0.1-0.1-0.2-0.2-0.2c0-0.1,0-0.1,0-0.2
		c-0.5-0.7-0.9-1.4-1.4-2.1c-1.8-1.4-6.2-4.9-8.2-1.5c-0.1,0-0.2,0-0.2,0c-6.2,4.9-10,11.8-14.3,18.1c-3.5,5.2-8.5,14.8-14.9,17.3
		c-0.2,0.2-0.4,0.2-0.7,0.2c-8.8-1.4,5.4-25.9,7.4-28.6c3.2-5.7-8.8-14.4-12.4-9.3c-7,6.3-11.2,19.2-13.9,27.8
		c-6.5,5.1-25.2,17.1-32.7,7.8c-3.2-4-0.9-11.6,0.8-15.7c0.5-1.3,7.7-14.9,10.6-11.3c4.8,7.8-11.4,14.2-7.6,20.4
		c2.2,2.5,5.4,1.4,8.1,0.4c9.4-3.1,22.7-23.8,9.3-29.6c-14-6-27.6,10-32.9,20.4c-4.5,8.7-10.1,27.9,2.7,32.7
		c14.5,5.4,30.3-3.3,39.5-14.2c-0.2,8.5,4.8,14.7,13.8,14c7.4,0,13.6-10.1,17.1-15c-0.8,4.1-1.2,8.3-0.8,12.5c0,1.1,0.5,2.1,1.6,3
		c5.9,3.5,12.7,2.9,19,1.1c1.6-0.6-2.4-9.2-2.5-11.2C344.6,78.3,346.5,71.5,349.3,65.8C349.9,64.5,348.7,67,349.3,65.8z"/>
	<path d="M418.7,59.5c-0.2,0-0.3-0.1-0.5-0.3c-1.8-0.8-3.6-0.8-5.3,0c1.3-3.7,1.8-7.9-1.8-10.8c-1.6-1.4-3.4-1.8-5.4-2.4
		c-16.6-3.3-31.3,22.3-34.4,34.1c-1.9,6.9-0.7,14.8,7.6,16.7c9,2.2,16.7-3.5,22.4-9.4c-0.4,5.1,1.5,10.2,6.6,12.6
		c2.1,1.2,4.7,1.8,7.6,2c1.7,0.4,2.7,0.2,3.1-0.7c0.3-0.4,0.4-0.9,0.1-1.5c-5.7-10.7-1.4-21.4,4.8-31.1c0.6-1.3,0.6-2.4,0.1-3.5
		C422.9,63,421.3,61.1,418.7,59.5C418.5,59.5,421.3,61.1,418.7,59.5z M407.2,67.9c-1.2,2.6-1.9,5.7-3.5,8.2
		c-3.6,2.5-9.4,6.9-14.3,6.2c-11.2-1.2-2.8-15.9,0.7-20.4c2.4-3.1,5.8-7.2,10.1-8c5.5-1.1,4.7,5.5,2.4,7.8c-0.3,0.3-0.7,0.5-1,0.8
		c-0.4,0.9-0.4,1.6-0.2,2.2c0.8,2.9,7.2-0.6,8.3-1.4C408.8,64.8,407.9,66.3,407.2,67.9C406.4,69.5,407.9,66.3,407.2,67.9z"/>
	<path d="M443.2,74c4.5-6.6,7.5-14.1,12.1-20.6c4.9-6.9,10.4-13.7,16.7-19.6c6.4,0.3,20.6,4.8,20.6,12c0.1,0.6,0.5,0.9,1.3,1
		c5.6-0.6,10.5-4.3,6.8-9.7c-4.1-5.9-14.3-8.4-21.3-9.3c1.1-0.7,1.7-1.4,1.7-1.9c0.1-4.8-4.5-7.8-9.5-8.4c-7-0.9-10.6,1.8-14.8,6.2
		c-10.1-1.5-20.2-2.1-30.2-4.1c-5.5-1.1-11.1-2.7-16.1-5.1c-3.4-1.6-9.1-7.3-11.2-1.8c-3.8-3.5-8.9-4.3-13.9-3.6
		c-8.6,3.1-13.5,14.1-17.1,21.2c-4.9,9.5-8.7,19.6-12.2,29.7c-2.6,7.6-5.2,15.4-4.9,23.5c0.2,4.5,1.3,8.3,5.2,11.1
		c1.7,1.2,8.5,4.9,10.5,2.4c0.5-0.9,0.6-1.6,0.4-2.2c-5.6-9.8,1.8-26.4,5.9-35.9c3.1-7.5,7.2-14.6,11.6-21.5
		c3.5-5.4,7.6-13.5,13.5-17.1c4.2,18,40.5,8.5,53.3,10.2c-9.2,12.2-16.3,25.9-23,39.5c-5.9,11.9-11,27.3,6.5,32
		c5.3,0.4,1.9-8.6,2.3-11.5C438.3,84.6,440.5,79.1,443.2,74C443.4,73.7,442.6,75.1,443.2,74z"/>
	<path d="M544.6,64.9c-3.7-5-14.7-0.5-18.7,1.6c-7.1,3.5-11.2,8.8-16.7,13.7c1.9-3,3.9-6,6.1-8.8c1.5-1.9,4.6-4.3,4.5-6.8
		c-0.2-3.6-9.1-10.8-12.7-7c-4.1,5.2-8.1,10.5-11.7,16.1c-2.2,0-4.3-0.3-6.4-0.8c3.4-7.4,4.4-21.6-8.3-22.4c-4.1-0.2-7.3,1.8-9.7,6
		c0.2-0.9-0.1-1.5-1-2.1c-6.4-7.1-22.6,16.1-24.4,20.1c-4,8.1-8.1,23.6,5,26.7c17.3,3.3,27-10.7,35.4-21.5c1.7,0.7,4,0.7,5.9,0.7
		c-2.2,4.8-6.8,13-3.5,18.2c1.9,3,11.4,9,15.6,7.8c0.5-0.2,1-0.7,1.6-1.3c1.3-1.7,0.1-5.1,0.6-7.1c0.7-3.2,2.4-6.4,4.3-9.2
		c1-1.4,8.9-12.3,11.2-10.9c-1.7,3.2-3.4,4.6-1.1,7.9c3.3,4.5,11.6,3.7,16.5,3c2.5-0.5,0.2-2.6-0.3-3.6c-0.9-1.7,1.1-4.2,2.1-5.5
		C541.6,75.8,548.9,70,544.6,64.9C543.6,63.6,546.1,66.7,544.6,64.9z M473.9,77.8c-2.8,3-5.9,5.8-9.6,8c-3.4,2.1-10.3,3.3-9.3-2.7
		c0.9-5.5,3.7-11.3,7-15.9c2.3-3.3,6.3-5.9,8.3-9.3c-2.2,6.5-3.1,14.7,4.4,19.1C474.7,77.2,474.4,77.4,473.9,77.8
		C471.3,80.5,474.4,77.4,473.9,77.8z M480.3,68.6c-1.7-0.7-3.3-2.5-3.4-4.3c-0.1-1.3,0.8-8.7,4.3-6.5
		C484.4,59.8,481.5,66.5,480.3,68.6C479.8,68.4,481.7,66.2,480.3,68.6z"/>
</g>
</svg>
